# xmcd
#
# Track frame offsets:
#	150
#	16454
#	27125
#	37338
#	55695
#	72694
#	87781
#	105013
#	118075
#	133290
#	159005
#
# Disc length: 2331 seconds
#
# Revision: 0
# Processed by: cddbd v1.5.2PL0 Copyright (c) Steve Scherf et al.
# Submitted via: dBpowerAMP V4.0
#
DISCID=8b09190b
DTITLE=Oh Susanna - Short Stories
DYEAR=2007
DGENRE=Folk
TTITLE0=Pretty Face
TTITLE1=Beauty Queen
TTITLE2=Bullies
TTITLE3=Three Shots
TTITLE4=Greyhound Bus
TTITLE5=Miss Liberty
TTITLE6=Schoolyard
TTITLE7=Pretty Penny
TTITLE8=Holy Roller
TTITLE9=Billy 4
TTITLE10=Filled with Gold
EXTD=
EXTT0=
EXTT1=
EXTT2=
EXTT3=
EXTT4=
EXTT5=
EXTT6=
EXTT7=
EXTT8=
EXTT9=
EXTT10=
PLAYORDER=
